<svg width="64" height="5" viewBox="0 0 64 5" fill="none" xmlns="http://www.w3.org/2000/svg">
<path fill-rule="evenodd" clip-rule="evenodd" d="M17.5 2.5C17.5 3.88071 16.3807 5 15 5C13.6193 5 12.5 3.88071 12.5 2.5C12.5 1.11929 13.6193 0 15 0C16.3807 0 17.5 1.11929 17.5 2.5ZM34.5 2.5C34.5 3.88071 33.3807 5 32 5C30.6193 5 29.5 3.88071 29.5 2.5C29.5 1.11929 30.6193 0 32 0C33.3807 0 34.5 1.11929 34.5 2.5ZM49 5C50.3807 5 51.5 3.88071 51.5 2.5C51.5 1.11929 50.3807 0 49 0C47.6193 0 46.5 1.11929 46.5 2.5C46.5 3.88071 47.6193 5 49 5Z" fill="#D3B47F"/>
</svg>
