<svg width="24" height="24" viewBox="0 0 24 24" fill="none" xmlns="http://www.w3.org/2000/svg">
<path d="M18.3 5.71022C18.2075 5.61752 18.0976 5.54397 17.9766 5.49379C17.8557 5.44361 17.726 5.41778 17.595 5.41778C17.464 5.41778 17.3344 5.44361 17.2134 5.49379C17.0924 5.54397 16.9825 5.61752 16.89 5.71022L12 10.5902L7.11001 5.70022C7.01743 5.60764 6.90752 5.5342 6.78655 5.4841C6.66559 5.43399 6.53594 5.4082 6.40501 5.4082C6.27408 5.4082 6.14443 5.43399 6.02347 5.4841C5.9025 5.5342 5.79259 5.60764 5.70001 5.70022C5.60743 5.79281 5.53399 5.90272 5.48388 6.02368C5.43378 6.14464 5.40799 6.27429 5.40799 6.40522C5.40799 6.53615 5.43378 6.6658 5.48388 6.78677C5.53399 6.90773 5.60743 7.01764 5.70001 7.11022L10.59 12.0002L5.70001 16.8902C5.60743 16.9828 5.53399 17.0927 5.48388 17.2137C5.43378 17.3346 5.40799 17.4643 5.40799 17.5952C5.40799 17.7262 5.43378 17.8558 5.48388 17.9768C5.53399 18.0977 5.60743 18.2076 5.70001 18.3002C5.79259 18.3928 5.9025 18.4662 6.02347 18.5163C6.14443 18.5665 6.27408 18.5922 6.40501 18.5922C6.53594 18.5922 6.66559 18.5665 6.78655 18.5163C6.90752 18.4662 7.01743 18.3928 7.11001 18.3002L12 13.4102L16.89 18.3002C16.9826 18.3928 17.0925 18.4662 17.2135 18.5163C17.3344 18.5665 17.4641 18.5922 17.595 18.5922C17.7259 18.5922 17.8556 18.5665 17.9766 18.5163C18.0975 18.4662 18.2074 18.3928 18.3 18.3002C18.3926 18.2076 18.466 18.0977 18.5161 17.9768C18.5662 17.8558 18.592 17.7262 18.592 17.5952C18.592 17.4643 18.5662 17.3346 18.5161 17.2137C18.466 17.0927 18.3926 16.9828 18.3 16.8902L13.41 12.0002L18.3 7.11022C18.68 6.73022 18.68 6.09022 18.3 5.71022V5.71022Z" fill="black"/>
</svg>
